<svg xmlns="http://www.w3.org/2000/svg" viewBox="0 0 64 64"><defs><linearGradient id="p" x1="0" y1="0" x2="0" y2="1"><stop offset="0" stop-color="#4a525e"/><stop offset="1" stop-color="#1c2027"/></linearGradient><radialGradient id="k" cx=".4" cy=".4" r=".6"><stop offset="0" stop-color="#3a3f46"/><stop offset="1" stop-color="#101216"/></radialGradient><linearGradient id="gd" x1="0" x2="1"><stop offset="0" stop-color="#b8892f"/><stop offset=".5" stop-color="#f2d58a"/><stop offset="1" stop-color="#9a6f24"/></linearGradient></defs>
<rect x="2" y="6" width="60" height="52" rx="5" fill="url(#p)" stroke="#0f1115"/>
<circle cx="24" cy="34" r="15" fill="#d6dbe1" opacity=".9"/><circle cx="24" cy="34" r="12.5" fill="url(#k)"/>
<path d="M36 26 49 15" stroke="#1a1d22" stroke-width="5" stroke-linecap="round"/><path d="M36 26 49 15" stroke="#6b7480" stroke-width="2" stroke-linecap="round"/>
<path d="M16 28a10 10 0 0 1 8-4" stroke="#fff" stroke-opacity=".25" stroke-width="1.5" fill="none"/>
<rect x="44" y="34" width="12" height="16" rx="1.5" fill="url(#gd)"/><rect x="42" y="32" width="16" height="3" rx="1" fill="#e0e4e8"/><rect x="42" y="49" width="16" height="3" rx="1" fill="#e0e4e8"/>
<g stroke="#8a6116" stroke-width=".8"><path d="M45 38h10M45 41h10M45 44h10M45 47h10"/></g>
<path d="M40 54 58 20" stroke="#d6dbe1" stroke-width="1.4" stroke-linecap="round"/><ellipse cx="56.6" cy="22.6" rx=".8" ry="1.8" transform="rotate(28 56.6 22.6)" fill="none" stroke="#1c2027" stroke-width=".7"/></svg>
