<svg xmlns="http://www.w3.org/2000/svg" viewBox="0 0 1200 420" preserveAspectRatio="xMidYMid slice" role="img" aria-label="Drawn scene: a garden path leading between rows of fruit trees toward a low hill in late golden light" focusable="false"><defs><linearGradient id="sb207u4-sky" x1="0" y1="0" x2="0" y2="1"><stop offset="0" stop-color="#8AB0D8"/><stop offset="0.6" stop-color="#F2CFA0"/><stop offset="1" stop-color="#F8E4B8"/></linearGradient><linearGradient id="sb207u4-hill" x1="0" y1="0" x2="0" y2="1"><stop offset="0" stop-color="#A8B87A"/><stop offset="1" stop-color="#6E8A4A"/></linearGradient><linearGradient id="sb207u4-grass" x1="0" y1="0" x2="0" y2="1"><stop offset="0" stop-color="#8AA850"/><stop offset="1" stop-color="#3E5A28"/></linearGradient><linearGradient id="sb207u4-path" x1="0" y1="0" x2="0" y2="1"><stop offset="0" stop-color="#D8C49A"/><stop offset="1" stop-color="#8A7448"/></linearGradient><radialGradient id="sb207u4-sun" cx="0.5" cy="0.5" r="0.5"><stop offset="0" stop-color="#FFF3C4" stop-opacity="0.8"/><stop offset="1" stop-color="#FFF3C4" stop-opacity="0"/></radialGradient></defs>
<rect width="1200" height="420" fill="url(#sb207u4-sky)"/>
<circle cx="600" cy="150" r="170" fill="url(#sb207u4-sun)"/>
<g fill="#FFF" opacity=".55"><ellipse cx="200" cy="70" rx="110" ry="24"/><ellipse cx="260" cy="60" rx="70" ry="28"/><ellipse cx="960" cy="90" rx="130" ry="22"/></g>
<path d="M0 214 Q200 150 420 196 T780 178 T1200 196 V240 H0z" fill="url(#sb207u4-hill)"/>
<path d="M0 226 Q600 208 1200 226 V420 H0z" fill="url(#sb207u4-grass)"/>
<path d="M520 420 L590 220 L610 220 L680 420z" fill="url(#sb207u4-path)"/>
<path d="M200 420 L600 220" stroke="#9A8A5A" stroke-width="1" opacity=".35"/><path d="M360 420 L600 220" stroke="#9A8A5A" stroke-width="1" opacity=".35"/><path d="M840 420 L600 220" stroke="#9A8A5A" stroke-width="1" opacity=".35"/><path d="M1000 420 L600 220" stroke="#9A8A5A" stroke-width="1" opacity=".35"/>
<g stroke="#C8B48A" stroke-width="1.5" fill="none" opacity=".5"><path d="M540 380 q60 -8 120 0"/><path d="M556 330 q44 -6 88 0"/><path d="M572 290 q28 -4 56 0"/></g>
<rect x="564" y="194" width="3" height="20" fill="#5A4028"/><circle cx="565" cy="189" r="12" fill="#7AA84A"/><circle cx="559" cy="185" r="7" fill="#9AC060"/><circle cx="572" cy="186" r="6" fill="#9AC060"/><rect x="539" y="194" width="3" height="20" fill="#5A4028"/><circle cx="541" cy="189" r="12" fill="#7AA84A"/><circle cx="535" cy="185" r="7" fill="#9AC060"/><circle cx="547" cy="186" r="6" fill="#9AC060"/><rect x="515" y="194" width="3" height="20" fill="#5A4028"/><circle cx="516" cy="189" r="12" fill="#7AA84A"/><circle cx="510" cy="185" r="7" fill="#9AC060"/><circle cx="523" cy="186" r="6" fill="#9AC060"/><rect x="490" y="194" width="3" height="20" fill="#5A4028"/><circle cx="491" cy="189" r="12" fill="#7AA84A"/><circle cx="485" cy="185" r="7" fill="#9AC060"/><circle cx="498" cy="186" r="6" fill="#9AC060"/><rect x="465" y="194" width="3" height="20" fill="#5A4028"/><circle cx="467" cy="189" r="12" fill="#7AA84A"/><circle cx="460" cy="185" r="7" fill="#9AC060"/><circle cx="473" cy="186" r="6" fill="#9AC060"/><rect x="441" y="194" width="3" height="20" fill="#5A4028"/><circle cx="442" cy="189" r="12" fill="#7AA84A"/><circle cx="436" cy="185" r="7" fill="#9AC060"/><circle cx="449" cy="186" r="6" fill="#9AC060"/><rect x="633" y="194" width="3" height="20" fill="#5A4028"/><circle cx="635" cy="189" r="12" fill="#7AA84A"/><circle cx="628" cy="185" r="7" fill="#9AC060"/><circle cx="641" cy="186" r="6" fill="#9AC060"/><rect x="658" y="194" width="3" height="20" fill="#5A4028"/><circle cx="659" cy="189" r="12" fill="#7AA84A"/><circle cx="653" cy="185" r="7" fill="#9AC060"/><circle cx="666" cy="186" r="6" fill="#9AC060"/><rect x="683" y="194" width="3" height="20" fill="#5A4028"/><circle cx="684" cy="189" r="12" fill="#7AA84A"/><circle cx="678" cy="185" r="7" fill="#9AC060"/><circle cx="691" cy="186" r="6" fill="#9AC060"/><rect x="707" y="194" width="3" height="20" fill="#5A4028"/><circle cx="709" cy="189" r="12" fill="#7AA84A"/><circle cx="703" cy="185" r="7" fill="#9AC060"/><circle cx="715" cy="186" r="6" fill="#9AC060"/><rect x="732" y="194" width="3" height="20" fill="#5A4028"/><circle cx="733" cy="189" r="12" fill="#7AA84A"/><circle cx="727" cy="185" r="7" fill="#9AC060"/><circle cx="740" cy="186" r="6" fill="#9AC060"/><rect x="757" y="194" width="3" height="20" fill="#5A4028"/><circle cx="758" cy="189" r="12" fill="#7AA84A"/><circle cx="752" cy="185" r="7" fill="#9AC060"/><circle cx="765" cy="186" r="6" fill="#9AC060"/><rect x="537" y="200" width="4" height="32" fill="#5A4028"/><circle cx="539" cy="192" r="20" fill="#6A9A40"/><circle cx="529" cy="185" r="12" fill="#8AB050"/><circle cx="550" cy="187" r="10" fill="#8AB050"/><rect x="482" y="200" width="4" height="32" fill="#5A4028"/><circle cx="484" cy="192" r="20" fill="#6A9A40"/><circle cx="474" cy="185" r="12" fill="#8AB050"/><circle cx="495" cy="187" r="10" fill="#8AB050"/><rect x="427" y="200" width="4" height="32" fill="#5A4028"/><circle cx="430" cy="192" r="20" fill="#6A9A40"/><circle cx="420" cy="185" r="12" fill="#8AB050"/><circle cx="440" cy="187" r="10" fill="#8AB050"/><rect x="373" y="200" width="4" height="32" fill="#5A4028"/><circle cx="375" cy="192" r="20" fill="#6A9A40"/><circle cx="365" cy="185" r="12" fill="#8AB050"/><circle cx="386" cy="187" r="10" fill="#8AB050"/><rect x="318" y="200" width="4" height="32" fill="#5A4028"/><circle cx="320" cy="192" r="20" fill="#6A9A40"/><circle cx="310" cy="185" r="12" fill="#8AB050"/><circle cx="331" cy="187" r="10" fill="#8AB050"/><rect x="659" y="200" width="4" height="32" fill="#5A4028"/><circle cx="661" cy="192" r="20" fill="#6A9A40"/><circle cx="651" cy="185" r="12" fill="#8AB050"/><circle cx="672" cy="187" r="10" fill="#8AB050"/><rect x="714" y="200" width="4" height="32" fill="#5A4028"/><circle cx="716" cy="192" r="20" fill="#6A9A40"/><circle cx="706" cy="185" r="12" fill="#8AB050"/><circle cx="727" cy="187" r="10" fill="#8AB050"/><rect x="768" y="200" width="4" height="32" fill="#5A4028"/><circle cx="770" cy="192" r="20" fill="#6A9A40"/><circle cx="761" cy="185" r="12" fill="#8AB050"/><circle cx="781" cy="187" r="10" fill="#8AB050"/><rect x="823" y="200" width="4" height="32" fill="#5A4028"/><circle cx="825" cy="192" r="20" fill="#6A9A40"/><circle cx="815" cy="185" r="12" fill="#8AB050"/><circle cx="836" cy="187" r="10" fill="#8AB050"/><rect x="877" y="200" width="4" height="32" fill="#5A4028"/><circle cx="880" cy="192" r="20" fill="#6A9A40"/><circle cx="870" cy="185" r="12" fill="#8AB050"/><circle cx="890" cy="187" r="10" fill="#8AB050"/><rect x="509" y="213" width="7" height="49" fill="#5A4028"/><circle cx="512" cy="199" r="31" fill="#5A8A38"/><circle cx="497" cy="189" r="18" fill="#7AA048"/><circle cx="529" cy="192" r="15" fill="#7AA048"/><circle cx="501" cy="192" r="3.1" fill="#E4573D"/><circle cx="522" cy="203" r="3.1" fill="#E4573D"/><circle cx="512" cy="184" r="3.1" fill="#E4573D"/><circle cx="529" cy="189" r="3.1" fill="#E4573D"/><circle cx="495" cy="206" r="3.1" fill="#E4573D"/><rect x="404" y="213" width="7" height="49" fill="#5A4028"/><circle cx="408" cy="199" r="31" fill="#5A8A38"/><circle cx="392" cy="189" r="18" fill="#7AA048"/><circle cx="425" cy="192" r="15" fill="#7AA048"/><circle cx="397" cy="192" r="3.1" fill="#E4573D"/><circle cx="418" cy="203" r="3.1" fill="#E4573D"/><circle cx="408" cy="184" r="3.1" fill="#E4573D"/><circle cx="425" cy="189" r="3.1" fill="#E4573D"/><circle cx="391" cy="206" r="3.1" fill="#E4573D"/><rect x="300" y="213" width="7" height="49" fill="#5A4028"/><circle cx="303" cy="199" r="31" fill="#5A8A38"/><circle cx="288" cy="189" r="18" fill="#7AA048"/><circle cx="320" cy="192" r="15" fill="#7AA048"/><circle cx="292" cy="192" r="3.1" fill="#E4573D"/><circle cx="313" cy="203" r="3.1" fill="#E4573D"/><circle cx="303" cy="184" r="3.1" fill="#E4573D"/><circle cx="320" cy="189" r="3.1" fill="#E4573D"/><circle cx="286" cy="206" r="3.1" fill="#E4573D"/><rect x="195" y="213" width="7" height="49" fill="#5A4028"/><circle cx="199" cy="199" r="31" fill="#5A8A38"/><circle cx="183" cy="189" r="18" fill="#7AA048"/><circle cx="216" cy="192" r="15" fill="#7AA048"/><circle cx="188" cy="192" r="3.1" fill="#E4573D"/><circle cx="209" cy="203" r="3.1" fill="#E4573D"/><circle cx="199" cy="184" r="3.1" fill="#E4573D"/><circle cx="216" cy="189" r="3.1" fill="#E4573D"/><circle cx="182" cy="206" r="3.1" fill="#E4573D"/><rect x="684" y="213" width="7" height="49" fill="#5A4028"/><circle cx="688" cy="199" r="31" fill="#5A8A38"/><circle cx="672" cy="189" r="18" fill="#7AA048"/><circle cx="705" cy="192" r="15" fill="#7AA048"/><circle cx="677" cy="192" r="3.1" fill="#E4573D"/><circle cx="698" cy="203" r="3.1" fill="#E4573D"/><circle cx="688" cy="184" r="3.1" fill="#E4573D"/><circle cx="705" cy="189" r="3.1" fill="#E4573D"/><circle cx="671" cy="206" r="3.1" fill="#E4573D"/><rect x="789" y="213" width="7" height="49" fill="#5A4028"/><circle cx="792" cy="199" r="31" fill="#5A8A38"/><circle cx="777" cy="189" r="18" fill="#7AA048"/><circle cx="809" cy="192" r="15" fill="#7AA048"/><circle cx="781" cy="192" r="3.1" fill="#E4573D"/><circle cx="802" cy="203" r="3.1" fill="#E4573D"/><circle cx="792" cy="184" r="3.1" fill="#E4573D"/><circle cx="809" cy="189" r="3.1" fill="#E4573D"/><circle cx="775" cy="206" r="3.1" fill="#E4573D"/><rect x="893" y="213" width="7" height="49" fill="#5A4028"/><circle cx="897" cy="199" r="31" fill="#5A8A38"/><circle cx="881" cy="189" r="18" fill="#7AA048"/><circle cx="914" cy="192" r="15" fill="#7AA048"/><circle cx="886" cy="192" r="3.1" fill="#E4573D"/><circle cx="907" cy="203" r="3.1" fill="#E4573D"/><circle cx="897" cy="184" r="3.1" fill="#E4573D"/><circle cx="914" cy="189" r="3.1" fill="#E4573D"/><circle cx="880" cy="206" r="3.1" fill="#E4573D"/><rect x="998" y="213" width="7" height="49" fill="#5A4028"/><circle cx="1001" cy="199" r="31" fill="#5A8A38"/><circle cx="986" cy="189" r="18" fill="#7AA048"/><circle cx="1018" cy="192" r="15" fill="#7AA048"/><circle cx="990" cy="192" r="3.1" fill="#E4573D"/><circle cx="1011" cy="203" r="3.1" fill="#E4573D"/><circle cx="1001" cy="184" r="3.1" fill="#E4573D"/><circle cx="1018" cy="189" r="3.1" fill="#E4573D"/><circle cx="984" cy="206" r="3.1" fill="#E4573D"/><rect x="481" y="230" width="10" height="70" fill="#5A4028"/><circle cx="486" cy="210" r="44" fill="#4E7A34"/><circle cx="464" cy="196" r="26" fill="#6A9040"/><circle cx="510" cy="200" r="22" fill="#6A9040"/><circle cx="470" cy="200" r="4.5" fill="#E4573D"/><circle cx="500" cy="216" r="4.5" fill="#E4573D"/><circle cx="486" cy="188" r="4.5" fill="#E4573D"/><circle cx="510" cy="196" r="4.5" fill="#E4573D"/><circle cx="462" cy="220" r="4.5" fill="#E4573D"/><rect x="276" y="230" width="10" height="70" fill="#5A4028"/><circle cx="281" cy="210" r="44" fill="#4E7A34"/><circle cx="259" cy="196" r="26" fill="#6A9040"/><circle cx="305" cy="200" r="22" fill="#6A9040"/><circle cx="265" cy="200" r="4.5" fill="#E4573D"/><circle cx="295" cy="216" r="4.5" fill="#E4573D"/><circle cx="281" cy="188" r="4.5" fill="#E4573D"/><circle cx="305" cy="196" r="4.5" fill="#E4573D"/><circle cx="257" cy="220" r="4.5" fill="#E4573D"/><rect x="72" y="230" width="10" height="70" fill="#5A4028"/><circle cx="77" cy="210" r="44" fill="#4E7A34"/><circle cx="55" cy="196" r="26" fill="#6A9040"/><circle cx="101" cy="200" r="22" fill="#6A9040"/><circle cx="61" cy="200" r="4.5" fill="#E4573D"/><circle cx="91" cy="216" r="4.5" fill="#E4573D"/><circle cx="77" cy="188" r="4.5" fill="#E4573D"/><circle cx="101" cy="196" r="4.5" fill="#E4573D"/><circle cx="53" cy="220" r="4.5" fill="#E4573D"/><rect x="709" y="230" width="10" height="70" fill="#5A4028"/><circle cx="714" cy="210" r="44" fill="#4E7A34"/><circle cx="692" cy="196" r="26" fill="#6A9040"/><circle cx="738" cy="200" r="22" fill="#6A9040"/><circle cx="698" cy="200" r="4.5" fill="#E4573D"/><circle cx="728" cy="216" r="4.5" fill="#E4573D"/><circle cx="714" cy="188" r="4.5" fill="#E4573D"/><circle cx="738" cy="196" r="4.5" fill="#E4573D"/><circle cx="690" cy="220" r="4.5" fill="#E4573D"/><rect x="914" y="230" width="10" height="70" fill="#5A4028"/><circle cx="919" cy="210" r="44" fill="#4E7A34"/><circle cx="897" cy="196" r="26" fill="#6A9040"/><circle cx="943" cy="200" r="22" fill="#6A9040"/><circle cx="903" cy="200" r="4.5" fill="#E4573D"/><circle cx="933" cy="216" r="4.5" fill="#E4573D"/><circle cx="919" cy="188" r="4.5" fill="#E4573D"/><circle cx="943" cy="196" r="4.5" fill="#E4573D"/><circle cx="895" cy="220" r="4.5" fill="#E4573D"/><rect x="1118" y="230" width="10" height="70" fill="#5A4028"/><circle cx="1123" cy="210" r="44" fill="#4E7A34"/><circle cx="1101" cy="196" r="26" fill="#6A9040"/><circle cx="1147" cy="200" r="22" fill="#6A9040"/><circle cx="1107" cy="200" r="4.5" fill="#E4573D"/><circle cx="1137" cy="216" r="4.5" fill="#E4573D"/><circle cx="1123" cy="188" r="4.5" fill="#E4573D"/><circle cx="1147" cy="196" r="4.5" fill="#E4573D"/><circle cx="1099" cy="220" r="4.5" fill="#E4573D"/>
<g><rect x="1010" y="272" width="120" height="10" rx="2" fill="#8A5A34"/><rect x="1010" y="256" width="120" height="8" rx="2" fill="#8A5A34"/><path d="M1020 282 v30 M1120 282 v30 M1020 256 v-20 M1120 256 v-20" stroke="#4A3018" stroke-width="6"/></g>
<g><path d="M80 300 h50 l-6 -30 h-38z" fill="#B8783E"/><ellipse cx="105" cy="270" rx="25" ry="6" fill="#8A5A2E"/><g fill="#E4573D"><circle cx="96" cy="264" r="7"/><circle cx="112" cy="262" r="7"/><circle cx="104" cy="254" r="7"/></g></g>
<g fill="#F4B63A"><circle cx="220" cy="330" r="3"/><circle cx="240" cy="322" r="3"/><circle cx="900" cy="334" r="3"/><circle cx="960" cy="326" r="3"/><circle cx="1180" cy="320" r="3"/></g>
<path d="M0 372 Q600 366 1200 372 V420 H0z" fill="#101A08" opacity=".5"/>
</svg>