<svg xmlns="http://www.w3.org/2000/svg" viewBox="0 0 1200 420" preserveAspectRatio="xMidYMid slice" role="img" aria-label="Drawn scene: a wooden footbridge over a stream in soft morning light, with a lantern post at either end" focusable="false"><defs><linearGradient id="sb18u3-sky" x1="0" y1="0" x2="0" y2="1"><stop offset="0" stop-color="#F6D8A8"/><stop offset="0.5" stop-color="#FBE8C8"/><stop offset="1" stop-color="#CFE8F2"/></linearGradient><linearGradient id="sb18u3-bank" x1="0" y1="0" x2="0" y2="1"><stop offset="0" stop-color="#8CBA5A"/><stop offset="1" stop-color="#4A7A3C"/></linearGradient><linearGradient id="sb18u3-water" x1="0" y1="0" x2="0" y2="1"><stop offset="0" stop-color="#8AC8E8"/><stop offset="1" stop-color="#3A78A8"/></linearGradient><linearGradient id="sb18u3-wood" x1="0" y1="0" x2="0" y2="1"><stop offset="0" stop-color="#B07A46"/><stop offset="1" stop-color="#7A4E2A"/></linearGradient><radialGradient id="sb18u3-glow" cx="0.5" cy="0.5" r="0.5"><stop offset="0" stop-color="#FFE8A0" stop-opacity="0.8"/><stop offset="1" stop-color="#FFE8A0" stop-opacity="0"/></radialGradient></defs>
<rect width="1200" height="420" fill="url(#sb18u3-sky)"/>
<circle cx="600" cy="120" r="120" fill="url(#sb18u3-glow)"/>
<path d="M0 200 Q200 150 400 190 T800 180 T1200 190 V260 H0z" fill="#A8C888" opacity=".8"/>
<rect x="194" y="190" width="12" height="72" fill="#6A4A2A"/><circle cx="200" cy="166" r="48" fill="#5E9E48"/><circle cx="174" cy="183" r="31" fill="#5E9E48"/><circle cx="229" cy="180" r="31" fill="#5E9E48"/><circle cx="188" cy="152" r="26" fill="#7CB860"/><rect x="994" y="180" width="13" height="78" fill="#6A4A2A"/><circle cx="1000" cy="154" r="52" fill="#4E8A40"/><circle cx="971" cy="172" r="34" fill="#4E8A40"/><circle cx="1031" cy="170" r="34" fill="#4E8A40"/><circle cx="987" cy="138" r="29" fill="#6AA452"/><rect x="76" y="228" width="7" height="42" fill="#6A4A2A"/><circle cx="80" cy="214" r="28" fill="#5E9E48"/><circle cx="65" cy="224" r="18" fill="#5E9E48"/><circle cx="97" cy="222" r="18" fill="#5E9E48"/><circle cx="73" cy="206" r="15" fill="#7CB860"/><rect x="1136" y="228" width="7" height="42" fill="#6A4A2A"/><circle cx="1140" cy="214" r="28" fill="#5E9E48"/><circle cx="1125" cy="224" r="18" fill="#5E9E48"/><circle cx="1157" cy="222" r="18" fill="#5E9E48"/><circle cx="1133" cy="206" r="15" fill="#7CB860"/>
<path d="M0 260 Q150 250 300 262 L340 300 H0z" fill="url(#sb18u3-bank)"/><path d="M1200 260 Q1050 250 900 262 L860 300 H1200z" fill="url(#sb18u3-bank)"/>
<path d="M0 300 H1200 V420 H0z" fill="url(#sb18u3-water)"/>
<path d="M300 262 Q600 240 900 262 L1200 300 V420 H0 V300z" fill="url(#sb18u3-water)"/><path d="M300 330 q20 -5 40 0 q20 5 40 0" stroke="#CFEFFF" stroke-width="2" fill="none" opacity=".6"/><path d="M500 350 q20 -5 40 0 q20 5 40 0" stroke="#CFEFFF" stroke-width="2" fill="none" opacity=".6"/><path d="M720 340 q20 -5 40 0 q20 5 40 0" stroke="#CFEFFF" stroke-width="2" fill="none" opacity=".6"/><path d="M880 360 q20 -5 40 0 q20 5 40 0" stroke="#CFEFFF" stroke-width="2" fill="none" opacity=".6"/><path d="M420 380 q20 -5 40 0 q20 5 40 0" stroke="#CFEFFF" stroke-width="2" fill="none" opacity=".6"/><path d="M640 386 q20 -5 40 0 q20 5 40 0" stroke="#CFEFFF" stroke-width="2" fill="none" opacity=".6"/>
<path d="M0 262 Q150 258 320 280 Q400 300 340 330 H0z" fill="url(#sb18u3-bank)"/><path d="M1200 262 Q1050 258 880 280 Q800 300 860 330 H1200z" fill="url(#sb18u3-bank)"/>
<path d="M120 300 q-4 -40 6 -60" stroke="#4A7A3C" stroke-width="3" fill="none"/><path d="M140 306 q-4 -40 -4 -60" stroke="#4A7A3C" stroke-width="3" fill="none"/><path d="M160 302 q-4 -40 8 -60" stroke="#4A7A3C" stroke-width="3" fill="none"/><path d="M1040 300 q-4 -40 -6 -60" stroke="#4A7A3C" stroke-width="3" fill="none"/><path d="M1060 306 q-4 -40 4 -60" stroke="#4A7A3C" stroke-width="3" fill="none"/><path d="M1080 300 q-4 -40 -8 -60" stroke="#4A7A3C" stroke-width="3" fill="none"/>
<g><path d="M400 250 Q600 200 800 250 v-24 Q600 176 400 226z" fill="url(#sb18u3-wood)"/>
<path d="M400 226 Q600 176 800 226" stroke="#5A3A24" stroke-width="3" fill="none"/><path d="M420 226 v20" stroke="#5A3A24" stroke-width="2" opacity=".5"/><path d="M438 226 v20" stroke="#5A3A24" stroke-width="2" opacity=".5"/><path d="M456 226 v20" stroke="#5A3A24" stroke-width="2" opacity=".5"/><path d="M474 226 v20" stroke="#5A3A24" stroke-width="2" opacity=".5"/><path d="M492 226 v20" stroke="#5A3A24" stroke-width="2" opacity=".5"/><path d="M510 226 v20" stroke="#5A3A24" stroke-width="2" opacity=".5"/><path d="M528 226 v20" stroke="#5A3A24" stroke-width="2" opacity=".5"/><path d="M546 226 v20" stroke="#5A3A24" stroke-width="2" opacity=".5"/><path d="M564 226 v20" stroke="#5A3A24" stroke-width="2" opacity=".5"/><path d="M582 226 v20" stroke="#5A3A24" stroke-width="2" opacity=".5"/><path d="M600 226 v20" stroke="#5A3A24" stroke-width="2" opacity=".5"/><path d="M618 226 v20" stroke="#5A3A24" stroke-width="2" opacity=".5"/><path d="M636 226 v20" stroke="#5A3A24" stroke-width="2" opacity=".5"/><path d="M654 226 v20" stroke="#5A3A24" stroke-width="2" opacity=".5"/><path d="M672 226 v20" stroke="#5A3A24" stroke-width="2" opacity=".5"/><path d="M690 226 v20" stroke="#5A3A24" stroke-width="2" opacity=".5"/><path d="M708 226 v20" stroke="#5A3A24" stroke-width="2" opacity=".5"/><path d="M726 226 v20" stroke="#5A3A24" stroke-width="2" opacity=".5"/><path d="M744 226 v20" stroke="#5A3A24" stroke-width="2" opacity=".5"/><path d="M762 226 v20" stroke="#5A3A24" stroke-width="2" opacity=".5"/><path d="M780 226 v20" stroke="#5A3A24" stroke-width="2" opacity=".5"/><path d="M798 226 v20" stroke="#5A3A24" stroke-width="2" opacity=".5"/>
<path d="M400 190 Q600 140 800 190" stroke="#7A4E2A" stroke-width="6" fill="none"/><path d="M430 226 v-36" stroke="#7A4E2A" stroke-width="5"/><path d="M470 226 v-36" stroke="#7A4E2A" stroke-width="5"/><path d="M510 226 v-36" stroke="#7A4E2A" stroke-width="5"/><path d="M550 226 v-36" stroke="#7A4E2A" stroke-width="5"/><path d="M590 226 v-36" stroke="#7A4E2A" stroke-width="5"/><path d="M630 226 v-36" stroke="#7A4E2A" stroke-width="5"/><path d="M670 226 v-36" stroke="#7A4E2A" stroke-width="5"/><path d="M710 226 v-36" stroke="#7A4E2A" stroke-width="5"/><path d="M750 226 v-36" stroke="#7A4E2A" stroke-width="5"/>
<path d="M420 254 v-40 M780 254 v-40" stroke="#5A3A24" stroke-width="8"/></g>
<rect x="416" y="120" width="8" height="106" fill="#3A2A20"/><path d="M404 120 h32 l-4 -36 h-24z" fill="#3A2A20"/><rect x="411" y="92" width="18" height="24" fill="#FFE27A"/><path d="M408 84 l12 -10 l12 10z" fill="#3A2A20"/><circle cx="420" cy="104" r="36" fill="url(#sb18u3-glow)"/><rect x="776" y="120" width="8" height="106" fill="#3A2A20"/><path d="M764 120 h32 l-4 -36 h-24z" fill="#3A2A20"/><rect x="771" y="92" width="18" height="24" fill="#FFE27A"/><path d="M768 84 l12 -10 l12 10z" fill="#3A2A20"/><circle cx="780" cy="104" r="36" fill="url(#sb18u3-glow)"/>
<g fill="#F05A7A"><circle cx="360" cy="286" r="6"/><circle cx="840" cy="284" r="6"/></g><g fill="#F4C84A"><circle cx="380" cy="292" r="5"/><circle cx="820" cy="290" r="5"/></g>
<path d="M0 370 H1200 V420 H0z" fill="#0A1A24" opacity=".45"/>
</svg>