<svg xmlns="http://www.w3.org/2000/svg" viewBox="0 0 1200 420" preserveAspectRatio="xMidYMid slice" role="img" aria-label="Drawn scene: a lantern-lit path through a night garden leading to an open gate under the stars" focusable="false"><defs><linearGradient id="sb36u4-sky" x1="0" y1="0" x2="0" y2="1"><stop offset="0" stop-color="#0E1436"/><stop offset="0.6" stop-color="#2A3A78"/><stop offset="1" stop-color="#5A5A98"/></linearGradient><linearGradient id="sb36u4-hedge" x1="0" y1="0" x2="0" y2="1"><stop offset="0" stop-color="#2E5A3A"/><stop offset="1" stop-color="#142A1C"/></linearGradient><linearGradient id="sb36u4-path" x1="0" y1="0" x2="0" y2="1"><stop offset="0" stop-color="#8A7A60"/><stop offset="1" stop-color="#3A3020"/></linearGradient><linearGradient id="sb36u4-ground" x1="0" y1="0" x2="0" y2="1"><stop offset="0" stop-color="#22402A"/><stop offset="1" stop-color="#0E1C14"/></linearGradient><radialGradient id="sb36u4-glow" cx="0.5" cy="0.5" r="0.5"><stop offset="0" stop-color="#FFE8A0" stop-opacity="0.8"/><stop offset="1" stop-color="#FFE8A0" stop-opacity="0"/></radialGradient><radialGradient id="sb36u4-gate" cx="0.5" cy="0.5" r="0.5"><stop offset="0" stop-color="#FFF0B8" stop-opacity="0.9"/><stop offset="1" stop-color="#FFF0B8" stop-opacity="0"/></radialGradient></defs>
<rect width="1200" height="420" fill="url(#sb36u4-sky)"/>
<g fill="#FFF4DA" opacity=".8"><circle cx="326" cy="63" r="1.4"/><circle cx="989" cy="18" r="0.9"/><circle cx="48" cy="161" r="1.4"/><circle cx="1135" cy="4" r="1.5"/><circle cx="122" cy="107" r="0.8"/><circle cx="801" cy="6" r="0.9"/><circle cx="1012" cy="21" r="1.0"/><circle cx="259" cy="72" r="1.5"/><circle cx="1198" cy="15" r="1.4"/><circle cx="261" cy="178" r="0.7"/><circle cx="264" cy="81" r="1.0"/><circle cx="1063" cy="68" r="1.5"/><circle cx="946" cy="67" r="1.2"/><circle cx="665" cy="198" r="1.3"/><circle cx="44" cy="181" r="1.4"/><circle cx="795" cy="80" r="1.3"/><circle cx="870" cy="71" r="1.0"/><circle cx="829" cy="154" r="0.7"/><circle cx="400" cy="161" r="0.6"/><circle cx="399" cy="140" r="0.9"/><circle cx="1194" cy="123" r="1.4"/><circle cx="785" cy="142" r="0.9"/><circle cx="228" cy="77" r="1.4"/><circle cx="179" cy="8" r="1.5"/><circle cx="302" cy="119" r="1.4"/><circle cx="581" cy="186" r="1.5"/><circle cx="392" cy="25" r="1.4"/><circle cx="935" cy="20" r="0.9"/><circle cx="178" cy="123" r="1.0"/><circle cx="601" cy="38" r="0.9"/><circle cx="1148" cy="69" r="0.6"/><circle cx="203" cy="152" r="0.7"/><circle cx="182" cy="63" r="1.4"/><circle cx="1053" cy="154" r="0.9"/><circle cx="848" cy="169" r="1.0"/><circle cx="239" cy="100" r="1.5"/><circle cx="1082" cy="83" r="0.6"/><circle cx="113" cy="70" r="0.7"/><circle cx="1092" cy="149" r="0.8"/><circle cx="387" cy="112" r="1.3"/><circle cx="558" cy="15" r="1.2"/><circle cx="181" cy="58" r="0.7"/><circle cx="712" cy="65" r="1.0"/><circle cx="919" cy="76" r="0.7"/><circle cx="882" cy="179" r="1.0"/><circle cx="617" cy="78" r="1.3"/><circle cx="924" cy="197" r="0.6"/><circle cx="859" cy="176" r="1.3"/><circle cx="118" cy="71" r="0.8"/><circle cx="957" cy="154" r="0.9"/><circle cx="1136" cy="97" r="0.6"/><circle cx="927" cy="68" r="1.5"/><circle cx="106" cy="107" r="1.4"/><circle cx="177" cy="118" r="1.5"/><circle cx="116" cy="165" r="1.4"/><circle cx="899" cy="48" r="1.5"/><circle cx="254" cy="135" r="0.8"/><circle cx="1189" cy="178" r="0.7"/><circle cx="24" cy="65" r="0.8"/><circle cx="823" cy="124" r="1.1"/></g>
<circle cx="1000" cy="70" r="26" fill="#FFF6D8" opacity=".95"/><circle cx="1012" cy="62" r="22" fill="#2A3A78" opacity=".95"/>
<path d="M0 230 Q200 190 400 220 T800 214 T1200 224 V300 H0z" fill="#182A40"/>
<path d="M0 240 H1200 V420 H0z" fill="url(#sb36u4-ground)"/>
<path d="M0 250 h430 v-70 h-430z M770 250 h430 v-70 h-430z" fill="url(#sb36u4-hedge)"/>
<path d="M0 180 q60 -20 100 0 q50 -18 100 0 q60 -20 120 0 q50 -14 110 0 M770 180 q60 -20 100 0 q50 -18 100 0 q60 -20 120 0 q50 -14 110 0" stroke="#2E5A3A" stroke-width="16" fill="none" stroke-linecap="round"/>
<g><rect x="430" y="90" width="30" height="160" fill="#2A2A30"/><rect x="740" y="90" width="30" height="160" fill="#2A2A30"/>
<path d="M430 90 q15 -30 30 0 M740 90 q15 -30 30 0" fill="#2A2A30"/>
<ellipse cx="600" cy="170" rx="150" ry="120" fill="url(#sb36u4-gate)"/>
<path d="M460 250 V120 q0 -10 10 -10 h10 v140z" fill="#1A1A20"/><path d="M740 250 V120 q0 -10 -10 -10 h-10 v140z" fill="#1A1A20"/>
<g stroke="#1A1A20" stroke-width="4"><path d="M480 130 l40 -20 v140 l-40 0z" fill="#26262E" opacity=".9"/><path d="M720 130 l-40 -20 v140 l40 0z" fill="#26262E" opacity=".9"/></g>
<path d="M480 150 h40 M480 190 h40 M680 150 h40 M680 190 h40" stroke="#5A5A68" stroke-width="3"/></g>
<path d="M560 250 q-60 60 -200 170 h480 q-140 -110 -200 -170z" fill="url(#sb36u4-path)"/>
<path d="M600 250 v170" stroke="#C8B890" stroke-width="2" opacity=".2"/>
<ellipse cx="60" cy="260" rx="60" ry="42" fill="#1E3A28"/><ellipse cx="150" cy="270" rx="50" ry="35" fill="#264832"/><ellipse cx="1140" cy="260" rx="60" ry="42" fill="#1E3A28"/><ellipse cx="1050" cy="270" rx="50" ry="35" fill="#264832"/><ellipse cx="300" cy="276" rx="40" ry="28" fill="#1E3A28"/><ellipse cx="900" cy="276" rx="40" ry="28" fill="#1E3A28"/><circle cx="40" cy="240" r="4" fill="#E8B8D8" opacity=".9"/><circle cx="90" cy="226" r="4" fill="#F8E8B8" opacity=".9"/><circle cx="130" cy="250" r="4" fill="#E8B8D8" opacity=".9"/><circle cx="1160" cy="236" r="4" fill="#E8B8D8" opacity=".9"/><circle cx="1110" cy="224" r="4" fill="#F8E8B8" opacity=".9"/><circle cx="1070" cy="250" r="4" fill="#E8B8D8" opacity=".9"/><circle cx="300" cy="260" r="4" fill="#F8E8B8" opacity=".9"/><circle cx="900" cy="262" r="4" fill="#F8E8B8" opacity=".9"/><circle cx="380" cy="180" r="2.5" fill="#FFF0A0" opacity=".85"/><circle cx="420" cy="150" r="2.5" fill="#FFF0A0" opacity=".85"/><circle cx="820" cy="170" r="2.5" fill="#FFF0A0" opacity=".85"/><circle cx="860" cy="200" r="2.5" fill="#FFF0A0" opacity=".85"/><circle cx="500" cy="120" r="2.5" fill="#FFF0A0" opacity=".85"/><circle cx="720" cy="110" r="2.5" fill="#FFF0A0" opacity=".85"/><circle cx="250" cy="200" r="2.5" fill="#FFF0A0" opacity=".85"/><circle cx="960" cy="190" r="2.5" fill="#FFF0A0" opacity=".85"/>
<rect x="347" y="220" width="6" height="70" fill="#1A1A20"/><path d="M338 220 h24 l-3 -28 h-18z" fill="#1A1A20"/><rect x="343" y="196" width="14" height="20" fill="#FFE27A"/><path d="M340 190 l10 -8 l10 8z" fill="#1A1A20"/><circle cx="350" cy="206" r="34" fill="url(#sb36u4-glow)"/><rect x="847" y="220" width="6" height="70" fill="#1A1A20"/><path d="M838 220 h24 l-3 -28 h-18z" fill="#1A1A20"/><rect x="843" y="196" width="14" height="20" fill="#FFE27A"/><path d="M840 190 l10 -8 l10 8z" fill="#1A1A20"/><circle cx="850" cy="206" r="34" fill="url(#sb36u4-glow)"/><rect x="468" y="213" width="4" height="49" fill="#1A1A20"/><path d="M462 213 h17 l-2 -20 h-13z" fill="#1A1A20"/><rect x="465" y="196" width="10" height="14" fill="#FFE27A"/><path d="M463 192 l7 -6 l7 6z" fill="#1A1A20"/><circle cx="470" cy="203" r="24" fill="url(#sb36u4-glow)"/><rect x="728" y="213" width="4" height="49" fill="#1A1A20"/><path d="M722 213 h17 l-2 -20 h-13z" fill="#1A1A20"/><rect x="725" y="196" width="10" height="14" fill="#FFE27A"/><path d="M723 192 l7 -6 l7 6z" fill="#1A1A20"/><circle cx="730" cy="203" r="24" fill="url(#sb36u4-glow)"/>
<path d="M0 370 H1200 V420 H0z" fill="#04060E" opacity=".55"/>
</svg>